{
	"asset":{
		"generator":"Khronos glTF Blender I/O v4.0.44",
		"version":"2.0"
	},
	"scene":0,
	"scenes":[
		{
			"name":"Scene",
			"nodes":[
				0,
				1,
				2,
				3
			]
		}
	],
	"nodes":[
		{
			"camera":0,
			"name":"Camera",
			"rotation":[
				-0.20997299253940582,
				0.3857799470424652,
				0.09062844514846802,
				0.8937962055206299
			],
			"translation":[
				7.358891487121582,
				4.958309173583984,
				6.925790786743164
			]
		},
		{
			"mesh":0,
			"name":"Landscape.001",
			"translation":[
				19.334735870361328,
				0.2671891748905182,
				0
			]
		},
		{
			"mesh":1,
			"name":"Old Urban building",
			"rotation":[
				0,
				0.70710688829422,
				0,
				0.7071066498756409
			],
			"translation":[
				-9.87119197845459,
				-0.26558366417884827,
				-0.4344230890274048
			]
		},
		{
			"mesh":2,
			"name":"Plane",
			"translation":[
				0,
				-0.927294135093689,
				0
			]
		}
	],
	"cameras":[
		{
			"name":"Camera",
			"perspective":{
				"aspectRatio":1.7777777777777777,
				"yfov":0.39959652046304894,
				"zfar":100,
				"znear":0.10000000149011612
			},
			"type":"perspective"
		}
	],
	"materials":[
		{
			"doubleSided":true,
			"name":"Zemlja",
			"normalTexture":{
				"index":0
			},
			"pbrMetallicRoughness":{
				"baseColorTexture":{
					"index":1
				},
				"metallicFactor":0,
				"metallicRoughnessTexture":{
					"index":2
				}
			}
		},
		{
			"doubleSided":true,
			"name":"main building material",
			"pbrMetallicRoughness":{
				"baseColorTexture":{
					"index":3
				},
				"metallicFactor":0,
				"roughnessFactor":0.5
			}
		},
		{
			"doubleSided":true,
			"name":"Scene_-_Root",
			"normalTexture":{
				"index":4
			},
			"pbrMetallicRoughness":{
				"baseColorTexture":{
					"index":5
				},
				"metallicFactor":0,
				"metallicRoughnessTexture":{
					"index":6
				}
			}
		},
		{
			"doubleSided":true,
			"name":"Material",
			"normalTexture":{
				"index":7
			},
			"pbrMetallicRoughness":{
				"baseColorTexture":{
					"index":8
				},
				"metallicFactor":0,
				"metallicRoughnessTexture":{
					"index":9
				}
			}
		},
		{
			"doubleSided":true,
			"name":"moj material",
			"normalTexture":{
				"index":10
			},
			"pbrMetallicRoughness":{
				"baseColorTexture":{
					"index":11
				},
				"metallicFactor":0,
				"metallicRoughnessTexture":{
					"index":12
				}
			}
		}
	],
	"meshes":[
		{
			"name":"Landscape.001",
			"primitives":[
				{
					"attributes":{
						"POSITION":0,
						"NORMAL":1,
						"TEXCOORD_0":2
					},
					"indices":3,
					"material":0
				}
			]
		},
		{
			"name":"Cube.002",
			"primitives":[
				{
					"attributes":{
						"POSITION":4,
						"NORMAL":5,
						"TEXCOORD_0":6
					},
					"indices":7,
					"material":1
				}
			]
		},
		{
			"name":"Plane",
			"primitives":[
				{
					"attributes":{
						"POSITION":8,
						"NORMAL":9,
						"TEXCOORD_0":10
					},
					"indices":11,
					"material":2
				},
				{
					"attributes":{
						"POSITION":12,
						"NORMAL":13,
						"TEXCOORD_0":14
					},
					"indices":15,
					"material":3
				},
				{
					"attributes":{
						"POSITION":16,
						"NORMAL":17,
						"TEXCOORD_0":18
					},
					"indices":19,
					"material":4
				}
			]
		}
	],
	"textures":[
		{
			"sampler":0,
			"source":0
		},
		{
			"sampler":0,
			"source":1
		},
		{
			"sampler":0,
			"source":2
		},
		{
			"sampler":0,
			"source":3
		},
		{
			"sampler":0,
			"source":4
		},
		{
			"sampler":0,
			"source":5
		},
		{
			"sampler":0,
			"source":6
		},
		{
			"sampler":0,
			"source":7
		},
		{
			"sampler":0,
			"source":8
		},
		{
			"sampler":0,
			"source":9
		},
		{
			"sampler":0,
			"source":10
		},
		{
			"sampler":0,
			"source":11
		},
		{
			"sampler":0,
			"source":12
		}
	],
	"images":[
		{
			"mimeType":"image/png",
			"name":"forest_leaves_02_nor_gl_1k.exr",
			"uri":"forest_leaves_02_nor_gl_1k_exr.png"
		},
		{
			"mimeType":"image/jpeg",
			"name":"forest_leaves_02_diffuse_1k",
			"uri":"forest_leaves_02_diffuse_1k.jpg"
		},
		{
			"mimeType":"image/png",
			"name":"forest_leaves_02_rough_1k",
			"uri":"forest_leaves_02_rough_1k.png"
		},
		{
			"mimeType":"image/jpeg",
			"name":"Building texture",
			"uri":"Building%20texture.jpg"
		},
		{
			"mimeType":"image/jpeg",
			"name":"Road007_1K-JPG_NormalGL",
			"uri":"Road007_1K-JPG_NormalGL.jpg"
		},
		{
			"mimeType":"image/jpeg",
			"name":"Road007_1K-JPG_Color",
			"uri":"Road007_1K-JPG_Color.jpg"
		},
		{
			"mimeType":"image/png",
			"name":"Road007_1K-JPG_Roughness",
			"uri":"Road007_1K-JPG_Roughness.png"
		},
		{
			"mimeType":"image/jpeg",
			"name":"Grass001_1K-JPG_NormalGL",
			"uri":"Grass001_1K-JPG_NormalGL.jpg"
		},
		{
			"mimeType":"image/jpeg",
			"name":"Grass001_1K-JPG_Color",
			"uri":"Grass001_1K-JPG_Color.jpg"
		},
		{
			"mimeType":"image/png",
			"name":"Grass001_1K-JPG_Roughness",
			"uri":"Grass001_1K-JPG_Roughness.png"
		},
		{
			"mimeType":"image/png",
			"name":"white_plaster_02_nor_gl_1k",
			"uri":"white_plaster_02_nor_gl_1k.png"
		},
		{
			"mimeType":"image/jpeg",
			"name":"white_plaster_02_diff_1k",
			"uri":"white_plaster_02_diff_1k.jpg"
		},
		{
			"mimeType":"image/png",
			"name":"white_plaster_02_rough_1k",
			"uri":"white_plaster_02_rough_1k.png"
		}
	],
	"accessors":[
		{
			"bufferView":0,
			"componentType":5126,
			"count":1282,
			"max":[
				9.303035736083984,
				5.5319743156433105,
				9.30312728881836
			],
			"min":[
				-9.303218841552734,
				-0.5558283925056458,
				-9.30312728881836
			],
			"type":"VEC3"
		},
		{
			"bufferView":1,
			"componentType":5126,
			"count":1282,
			"type":"VEC3"
		},
		{
			"bufferView":2,
			"componentType":5126,
			"count":1282,
			"type":"VEC2"
		},
		{
			"bufferView":3,
			"componentType":5123,
			"count":7089,
			"type":"SCALAR"
		},
		{
			"bufferView":4,
			"componentType":5126,
			"count":4710,
			"max":[
				8.778672218322754,
				8.954477310180664,
				4.972926139831543
			],
			"min":[
				-9.54991340637207,
				0.03476762771606445,
				-5.087803840637207
			],
			"type":"VEC3"
		},
		{
			"bufferView":5,
			"componentType":5126,
			"count":4710,
			"type":"VEC3"
		},
		{
			"bufferView":6,
			"componentType":5126,
			"count":4710,
			"type":"VEC2"
		},
		{
			"bufferView":7,
			"componentType":5123,
			"count":9093,
			"type":"SCALAR"
		},
		{
			"bufferView":8,
			"componentType":5126,
			"count":45,
			"max":[
				10.420440673828125,
				1.3580421209335327,
				9.040133476257324
			],
			"min":[
				-4.559943675994873,
				0.9394222497940063,
				-8.903740882873535
			],
			"type":"VEC3"
		},
		{
			"bufferView":9,
			"componentType":5126,
			"count":45,
			"type":"VEC3"
		},
		{
			"bufferView":10,
			"componentType":5126,
			"count":45,
			"type":"VEC2"
		},
		{
			"bufferView":11,
			"componentType":5123,
			"count":96,
			"type":"SCALAR"
		},
		{
			"bufferView":12,
			"componentType":5126,
			"count":16,
			"max":[
				10.420440673828125,
				3.3723692893981934,
				9.040133476257324
			],
			"min":[
				8.507392883300781,
				1.3535408973693848,
				-8.903740882873535
			],
			"type":"VEC3"
		},
		{
			"bufferView":13,
			"componentType":5126,
			"count":16,
			"type":"VEC3"
		},
		{
			"bufferView":14,
			"componentType":5126,
			"count":16,
			"type":"VEC2"
		},
		{
			"bufferView":15,
			"componentType":5123,
			"count":24,
			"type":"SCALAR"
		},
		{
			"bufferView":16,
			"componentType":5126,
			"count":12,
			"max":[
				8.917411804199219,
				1.2383928298950195,
				9.040133476257324
			],
			"min":[
				-5.295033931732178,
				0.9394222497940063,
				-8.903740882873535
			],
			"type":"VEC3"
		},
		{
			"bufferView":17,
			"componentType":5126,
			"count":12,
			"type":"VEC3"
		},
		{
			"bufferView":18,
			"componentType":5126,
			"count":12,
			"type":"VEC2"
		},
		{
			"bufferView":19,
			"componentType":5123,
			"count":18,
			"type":"SCALAR"
		}
	],
	"bufferViews":[
		{
			"buffer":0,
			"byteLength":15384,
			"byteOffset":0,
			"target":34962
		},
		{
			"buffer":0,
			"byteLength":15384,
			"byteOffset":15384,
			"target":34962
		},
		{
			"buffer":0,
			"byteLength":10256,
			"byteOffset":30768,
			"target":34962
		},
		{
			"buffer":0,
			"byteLength":14178,
			"byteOffset":41024,
			"target":34963
		},
		{
			"buffer":0,
			"byteLength":56520,
			"byteOffset":55204,
			"target":34962
		},
		{
			"buffer":0,
			"byteLength":56520,
			"byteOffset":111724,
			"target":34962
		},
		{
			"buffer":0,
			"byteLength":37680,
			"byteOffset":168244,
			"target":34962
		},
		{
			"buffer":0,
			"byteLength":18186,
			"byteOffset":205924,
			"target":34963
		},
		{
			"buffer":0,
			"byteLength":540,
			"byteOffset":224112,
			"target":34962
		},
		{
			"buffer":0,
			"byteLength":540,
			"byteOffset":224652,
			"target":34962
		},
		{
			"buffer":0,
			"byteLength":360,
			"byteOffset":225192,
			"target":34962
		},
		{
			"buffer":0,
			"byteLength":192,
			"byteOffset":225552,
			"target":34963
		},
		{
			"buffer":0,
			"byteLength":192,
			"byteOffset":225744,
			"target":34962
		},
		{
			"buffer":0,
			"byteLength":192,
			"byteOffset":225936,
			"target":34962
		},
		{
			"buffer":0,
			"byteLength":128,
			"byteOffset":226128,
			"target":34962
		},
		{
			"buffer":0,
			"byteLength":48,
			"byteOffset":226256,
			"target":34963
		},
		{
			"buffer":0,
			"byteLength":144,
			"byteOffset":226304,
			"target":34962
		},
		{
			"buffer":0,
			"byteLength":144,
			"byteOffset":226448,
			"target":34962
		},
		{
			"buffer":0,
			"byteLength":96,
			"byteOffset":226592,
			"target":34962
		},
		{
			"buffer":0,
			"byteLength":36,
			"byteOffset":226688,
			"target":34963
		}
	],
	"samplers":[
		{
			"magFilter":9729,
			"minFilter":9987
		}
	],
	"buffers":[
		{
			"byteLength":226724,
			"uri":"pls.bin"
		}
	]
}
